<?xml version="1.0" standalone="no"?>
<!DOCTYPE svg PUBLIC "-//W3C//DTD SVG 20010904//EN"
 "http://www.w3.org/TR/2001/REC-SVG-20010904/DTD/svg10.dtd">
<svg version="1.0" xmlns="http://www.w3.org/2000/svg"
 width="70.000000pt" height="70.000000pt" viewBox="0 0 70.000000 70.000000"
 preserveAspectRatio="xMidYMid meet">
<metadata>
Created by potrace 1.14, written by Peter Selinger 2001-2017
</metadata>
<g transform="translate(0.000000,70.000000) scale(0.100000,-0.100000)"
fill="#000000" stroke="none">
<path d="M472 601 c-49 -49 -131 -138 -182 -198 -101 -116 -111 -122 -199
-117 -47 2 -51 1 -51 -19 0 -12 3 -32 6 -45 6 -20 11 -22 45 -18 l39 5 -24
-32 c-13 -18 -31 -46 -39 -63 -16 -30 -15 -32 12 -58 32 -31 47 -33 56 -6 10
30 104 170 118 175 12 4 43 9 130 21 52 7 52 7 36 -33 -6 -15 -12 -35 -14 -43
-17 -72 -16 -75 7 -97 13 -12 32 -23 43 -25 16 -2 21 3 23 27 5 49 50 190 109
340 40 104 53 148 48 170 -6 34 -50 105 -65 105 -5 0 -49 -40 -98 -89z m91
-13 c-5 -7 -31 -69 -58 -138 -26 -69 -52 -128 -57 -131 -13 -8 -130 -21 -136
-14 -10 9 233 295 251 295 6 0 6 -5 0 -12z"/>
</g>
</svg>
